<?xml version="1.0" encoding="iso-8859-1"?>
<!-- Uploaded to: SVG Repo, www.svgrepo.com, Generator: SVG Repo Mixer Tools -->
<svg fill="#000000" height="800px" width="800px" version="1.1" id="Layer_1" xmlns="http://www.w3.org/2000/svg" xmlns:xlink="http://www.w3.org/1999/xlink" 
	 viewBox="0 0 512.002 512.002" xml:space="preserve">
<g>
	<g>
		<path d="M511.755,219.245L492.476,96.098c-0.02-0.123-0.054-0.24-0.075-0.362c-0.006-0.035-0.01-0.07-0.015-0.104
			c-0.856-6.071-4.347-11.713-10.031-15.084L381.599,20.825c-7.181-4.257-15.861-3.702-22.351,0.673
			c-1.452,0.51-2.873,1.172-4.23,2.028L256,85.942L152.972,20.999c-4.488-2.829-9.635-3.72-14.491-2.931
			c-0.173,0.021-0.346,0.046-0.517,0.072c-0.234,0.035-0.468,0.088-0.702,0.131c-0.457,0.085-0.913,0.174-1.366,0.29
			c-0.067,0.017-0.132,0.025-0.199,0.042c-0.185,0.049-0.358,0.12-0.541,0.173c-0.413,0.123-0.825,0.247-1.234,0.394
			c-0.323,0.117-0.636,0.251-0.949,0.383c-0.308,0.13-0.616,0.255-0.92,0.401c-0.399,0.19-0.781,0.4-1.162,0.612
			c-0.162,0.091-0.329,0.163-0.491,0.258L29.651,80.549c-5.65,3.349-9.139,8.945-10.02,14.976c-0.015,0.085-0.022,0.171-0.038,0.256
			c-0.018,0.107-0.049,0.209-0.067,0.318L0.247,219.247c-0.414,2.645-0.293,5.245,0.25,7.71c0.035,0.183,0.068,0.365,0.109,0.546
			c0.007,0.029,0.015,0.057,0.022,0.086c0.017,0.077,0.04,0.149,0.059,0.224c0.077,0.33,0.16,0.658,0.254,0.984
			c0.095,0.33,0.198,0.656,0.308,0.981c0.109,0.321,0.224,0.638,0.35,0.955c0.125,0.315,0.258,0.626,0.397,0.934
			c0.142,0.312,0.29,0.622,0.447,0.928c0.155,0.301,0.318,0.597,0.488,0.889c0.17,0.294,0.344,0.585,0.531,0.872
			c0.192,0.297,0.393,0.585,0.599,0.873c0.19,0.265,0.382,0.527,0.585,0.783c0.236,0.297,0.484,0.583,0.735,0.867
			c0.135,0.153,0.254,0.316,0.394,0.466l234.521,250.246c4.116,4.392,9.68,6.611,15.259,6.611c0.12,0,0.241-0.014,0.361-0.017
			c0.177,0.004,0.351,0.022,0.528,0.022c0.641,0,1.286-0.04,1.935-0.102c0.103-0.01,0.206-0.02,0.309-0.031
			c0.619-0.067,1.24-0.156,1.861-0.28c0.093-0.018,0.185-0.045,0.279-0.064c0.332-0.071,0.665-0.142,0.997-0.23
			c0.123-0.032,0.238-0.081,0.36-0.116c0.385-0.109,0.762-0.234,1.141-0.365c0.296-0.103,0.591-0.206,0.88-0.322
			c0.347-0.138,0.687-0.29,1.027-0.447c0.312-0.145,0.622-0.291,0.924-0.449c0.297-0.156,0.588-0.322,0.879-0.493
			c0.332-0.195,0.658-0.394,0.976-0.606c0.25-0.166,0.496-0.34,0.74-0.517c0.343-0.249,0.677-0.509,1.002-0.778
			c0.21-0.174,0.418-0.351,0.623-0.534c0.34-0.304,0.665-0.62,0.983-0.944c0.114-0.117,0.24-0.217,0.353-0.339l234.522-250.246
			c0.141-0.151,0.259-0.312,0.394-0.466c0.248-0.283,0.495-0.569,0.73-0.865c0.203-0.258,0.396-0.52,0.585-0.783
			c0.206-0.287,0.407-0.576,0.599-0.872c0.185-0.287,0.361-0.578,0.531-0.874c0.169-0.293,0.332-0.588,0.486-0.889
			c0.157-0.307,0.307-0.616,0.447-0.93c0.139-0.308,0.272-0.617,0.397-0.932c0.125-0.316,0.241-0.634,0.35-0.956
			c0.11-0.323,0.213-0.65,0.308-0.98c0.093-0.328,0.177-0.655,0.254-0.985c0.018-0.079,0.043-0.158,0.061-0.237
			c0.006-0.021,0.011-0.042,0.017-0.063c0.04-0.188,0.077-0.379,0.113-0.57C512.048,224.482,512.168,221.885,511.755,219.245z
			 M385.408,71.692l50.812,30.12l-75.559,63.061L385.408,71.692z M339.154,82.955l-31.654,119.19h-29.713l-0.435-80.234
			L339.154,82.955z M235.54,122.472l0.431,79.673h-29.898L174.735,84.144L235.54,122.472z M127.951,70.887l25.111,94.549
			l-77.142-63.706L127.951,70.887z M55.161,138.817l76.684,63.328H45.247L55.161,138.817z M69.272,243.959h104.643l41.38,155.813
			L69.272,243.959z M256.787,393.097L217.18,243.959h39.81h0.116h39.29L256.787,393.097z M298.898,397.433l40.76-153.475H442.73
			L298.898,397.433z M381.257,202.145l75.616-63.108l9.881,63.108H381.257z"/>
	</g>
</g>
</svg>